#N canvas 121 35 1118 649 10;
#X declare -lib OSC -lib mrpeach;
#X obj 90 250 print serialosc;
#X obj 191 152 bng 15 250 50 0 empty empty empty 17 7 0 10 -262144
-1 -1;
#X obj 90 210 serialosc;
#X msg 210 153 /sys/info;
#X floatatom 117 388 5 0 0 0 - - -;
#X obj 163 448 % 16;
#X obj 117 446 / 16;
#X floatatom 117 511 5 0 0 0 - - -;
#X floatatom 163 510 5 0 0 0 - - -;
#X obj 117 474 int;
#X obj 117 537 pack;
#X msg 117 360 0;
#X msg 117 565 /monome/ring/set 0 \$1 \$2;
#X obj 117 596 s to-serialosc;
#X obj 90 152 r to-serialosc;
#X floatatom 628 214 5 0 64 0 - - -;
#X floatatom 706 203 5 0 15 0 - - -;
#X obj 117 414 t f f;
#X obj 714 448 t l;
#X obj 699 361 uzi 10;
#X obj 700 330 t b f;
#X obj 728 395 int;
#X obj 627 263 int;
#X text 641 195 level;
#X text 745 201 brightness;
#X obj 706 234 t b f;
#X obj 627 286 t b f f b;
#X obj 639 321 - 64;
#X obj 639 349 * -1;
#X obj 637 379 uzi 10;
#X msg 637 405 0;
#X obj 615 486 prepend set;
#X msg 605 512 10 10 10 10 10 10 10 10 10 10 10 10 10 10 10 10 10 10
10 10 10 10 10 10 10 10 10 10 10 10 10 10 10 10 10 10 10 10 10 10 10
10 10 10 10 10 10 10 10 0 0 0 0 0 0 0 0 0 0 0 0 0 0 0;
#X obj 616 446 list prepend;
#X obj 759 220 loadbang;
#X msg 762 247 10;
#X obj 606 576 prepend /monome/ring/map 0;
#X obj 606 602 s to-serialosc;
#X obj 67 310 s arc-delta;
#X obj 67 278 routeOSC /monome/enc/delta /monome/enc/key;
#X obj 191 309 s arc-press;
#X obj 527 17 r arc-delta;
#X obj 645 17 r arc-press;
#X obj 527 51 route 0;
#X floatatom 527 86 5 0 0 0 - - -;
#X obj 533 200 t b f;
#X obj 560 250 +;
#X obj 542 226 int;
#X obj 550 287 clip 0 64;
#X obj 645 46 route 0;
#X obj 645 72 sel 1;
#X obj 646 100 tgl 15 0 empty empty empty 17 7 0 10 -262144 -1 -1 1
1;
#X obj 836 142 t b f;
#X obj 860 198 +;
#X obj 842 174 int;
#X obj 530 154 spigot;
#X obj 642 125 == 0;
#X obj 616 150 spigot 1;
#X obj 850 235 clip 0 15;
#X connect 1 0 2 0;
#X connect 2 0 0 0;
#X connect 2 0 39 0;
#X connect 3 0 2 0;
#X connect 4 0 17 0;
#X connect 5 0 8 0;
#X connect 6 0 9 0;
#X connect 7 0 10 0;
#X connect 8 0 10 1;
#X connect 9 0 7 0;
#X connect 10 0 12 0;
#X connect 11 0 4 0;
#X connect 12 0 13 0;
#X connect 14 0 2 0;
#X connect 15 0 22 0;
#X connect 15 0 47 1;
#X connect 16 0 25 0;
#X connect 16 0 54 1;
#X connect 17 0 6 0;
#X connect 17 1 5 0;
#X connect 18 0 33 1;
#X connect 19 0 21 0;
#X connect 20 0 19 0;
#X connect 20 1 19 1;
#X connect 21 0 33 0;
#X connect 22 0 26 0;
#X connect 25 0 22 0;
#X connect 25 1 21 1;
#X connect 26 0 32 0;
#X connect 26 1 27 0;
#X connect 26 2 20 0;
#X connect 26 3 33 1;
#X connect 27 0 28 0;
#X connect 28 0 29 0;
#X connect 29 0 30 0;
#X connect 30 0 33 0;
#X connect 31 0 32 0;
#X connect 32 0 36 0;
#X connect 33 0 18 0;
#X connect 33 0 31 0;
#X connect 34 0 35 0;
#X connect 35 0 16 0;
#X connect 36 0 37 0;
#X connect 39 0 38 0;
#X connect 39 1 40 0;
#X connect 41 0 43 0;
#X connect 42 0 49 0;
#X connect 43 0 44 0;
#X connect 44 0 55 0;
#X connect 44 0 57 0;
#X connect 45 0 47 0;
#X connect 45 1 46 1;
#X connect 46 0 48 0;
#X connect 47 0 46 0;
#X connect 48 0 15 0;
#X connect 49 0 50 0;
#X connect 50 0 51 0;
#X connect 51 0 56 0;
#X connect 51 0 55 1;
#X connect 52 0 54 0;
#X connect 52 1 53 1;
#X connect 53 0 58 0;
#X connect 54 0 53 0;
#X connect 55 0 45 0;
#X connect 56 0 57 1;
#X connect 57 0 52 0;
#X connect 58 0 16 0;
